<svg width="519" height="520" xmlns="http://www.w3.org/2000/svg" xmlns:xlink="http://www.w3.org/1999/xlink" xml:space="preserve" overflow="hidden"><defs><clipPath id="clip0"><rect x="1670" y="1287" width="519" height="520"/></clipPath><clipPath id="clip1"><rect x="1812" y="1411" width="274" height="274"/></clipPath><clipPath id="clip2"><rect x="1812" y="1411" width="274" height="274"/></clipPath><clipPath id="clip3"><rect x="1812" y="1411" width="274" height="274"/></clipPath></defs><g clip-path="url(#clip0)" transform="translate(-1670 -1287)"><path d="M432.5 183.813 432.5 70.2813 396.278 106.503C360.056 74.0656 311.941 54.0625 259.5 54.0625 145.969 54.0625 54.0625 145.969 54.0625 259.5 54.0625 373.031 145.969 464.938 259.5 464.938 316.266 464.938 367.625 441.691 404.928 404.928L358.975 358.975C333.566 384.384 298.425 400.063 259.5 400.063 182.191 400.063 118.938 336.809 118.938 259.5 118.938 182.191 182.191 118.938 259.5 118.938 294.1 118.938 325.997 131.372 350.325 152.456L318.969 183.813 432.5 183.813Z" fill="#002060" transform="matrix(1 0 0 1.00193 1670 1287)"/><g clip-path="url(#clip1)"><g clip-path="url(#clip2)"><g clip-path="url(#clip3)"><path d="M1878.41 1433.75C1873.69 1433.75 1869.87 1437.57 1869.87 1442.28L1869.87 1661.25 1886.94 1661.25 1886.94 1442.28C1886.94 1437.57 1883.12 1433.75 1878.41 1433.75Z" fill="#843C0C"/><path d="M1898.31 1439.44 2034.81 1496.31 1898.31 1553.19 1898.31 1439.44Z" fill="#843C0C"/></g></g></g></g></svg>