<svg width="152" height="151" xmlns="http://www.w3.org/2000/svg" xmlns:xlink="http://www.w3.org/1999/xlink" xml:space="preserve" overflow="hidden"><defs><clipPath id="clip0"><rect x="169" y="116" width="152" height="151"/></clipPath></defs><g clip-path="url(#clip0)" transform="translate(-169 -116)"><path d="M85.9127 123.38C85.9127 129.13 81.2508 133.792 75.5 133.792 69.7492 133.792 65.0873 129.13 65.0873 123.38 65.0873 117.629 69.7492 112.967 75.5 112.967 81.2508 112.967 85.9127 117.629 85.9127 123.38Z" fill="#0996FF" transform="matrix(1.00662 0 0 1 169 116)"/><path d="M81.7917 85.488 81.7917 105.385 69.2083 105.385 69.2083 73.4238 75.5 73.4238C89.4046 73.4238 98.4017 65.2446 98.4017 52.5983 98.6829 40.2313 88.8854 29.9779 76.5183 29.6967 76.1789 29.689 75.8394 29.689 75.5 29.6967 61.155 29.6967 52.5983 39.1342 52.5983 53.4792L40.1094 53.4792C40.1094 32.3077 54.2656 17.2077 75.5 17.2077 94.836 16.998 110.681 32.5031 110.891 51.8392 110.893 52.0922 110.893 52.3452 110.891 52.5983 110.891 70.1993 99.251 83.0343 81.7917 85.488Z" fill="#0996FF" transform="matrix(1.00662 0 0 1 169 116)"/></g></svg>