<svg width="520" height="519" xmlns="http://www.w3.org/2000/svg" xmlns:xlink="http://www.w3.org/1999/xlink" xml:space="preserve" overflow="hidden"><defs><clipPath id="clip0"><rect x="449" y="1238" width="520" height="519"/></clipPath></defs><g clip-path="url(#clip0)" transform="translate(-449 -1238)"><path d="M466.736 1356.33 908.725 1356.33 856.136 1408.99C849.28 1415.85 849.28 1426.98 856.136 1433.85 862.993 1440.72 874.111 1440.72 880.968 1433.85L963.679 1351.01C970.536 1344.47 970.801 1333.6 964.27 1326.74 964.078 1326.54 963.881 1326.34 963.679 1326.15L880.95 1243.33C874.419 1236.46 863.567 1236.2 856.71 1242.74 856.509 1242.93 856.311 1243.13 856.119 1243.33 849.262 1249.87 848.997 1260.73 855.528 1267.6 855.72 1267.8 855.917 1268 856.119 1268.19L908.708 1320.88 466.736 1320.88C456.941 1320.88 449 1328.83 449 1338.64 449 1348.45 456.941 1356.4 466.736 1356.4Z" fill="#FF66FF" fill-rule="evenodd"/><path d="M466.736 1674.33 908.725 1674.33 856.136 1726.99C849.28 1733.85 849.28 1744.98 856.136 1751.85 862.993 1758.72 874.111 1758.72 880.968 1751.85L963.679 1669.01C970.536 1662.47 970.801 1651.6 964.27 1644.74 964.078 1644.54 963.881 1644.34 963.679 1644.15L880.95 1561.33C874.419 1554.46 863.567 1554.2 856.71 1560.74 856.509 1560.93 856.311 1561.13 856.119 1561.33 849.262 1567.87 848.997 1578.73 855.528 1585.6 855.72 1585.8 855.917 1586 856.119 1586.19L908.708 1638.88 466.736 1638.88C456.941 1638.88 449 1646.83 449 1656.64 449 1666.45 456.941 1674.4 466.736 1674.4Z" fill="#FF66FF" fill-rule="evenodd"/></g></svg>