<svg width="520" height="520" xmlns="http://www.w3.org/2000/svg" xmlns:xlink="http://www.w3.org/1999/xlink" xml:space="preserve" overflow="hidden"><defs><clipPath id="clip0"><rect x="1293" y="1300" width="520" height="520"/></clipPath><clipPath id="clip1"><rect x="1463" y="1457" width="248" height="247"/></clipPath><clipPath id="clip2"><rect x="1463" y="1457" width="248" height="247"/></clipPath><clipPath id="clip3"><rect x="1463" y="1457" width="248" height="247"/></clipPath></defs><g clip-path="url(#clip0)" transform="translate(-1293 -1300)"><path d="M1726.33 1484.17 1726.33 1370.42 1690.04 1406.71C1653.75 1374.21 1605.54 1354.17 1553 1354.17 1439.25 1354.17 1347.17 1446.25 1347.17 1560 1347.17 1673.75 1439.25 1765.83 1553 1765.83 1609.88 1765.83 1661.33 1742.54 1698.71 1705.71L1652.67 1659.67C1627.21 1685.13 1592 1700.83 1553 1700.83 1475.54 1700.83 1412.17 1637.46 1412.17 1560 1412.17 1482.54 1475.54 1419.17 1553 1419.17 1587.67 1419.17 1619.62 1431.63 1644 1452.75L1612.58 1484.17 1726.33 1484.17Z" fill="#002060"/><g clip-path="url(#clip1)"><g clip-path="url(#clip2)"><g clip-path="url(#clip3)"><path d="M221.528 40.6521 89.7947 165.181 26.501 100.344 4.63125 121.184 88.7656 207.634 110.893 187.051 242.369 62.2645Z" fill="#385723" transform="matrix(1.00405 0 0 1 1463 1457)"/></g></g></g></g></svg>