<svg width="151" height="151" xmlns="http://www.w3.org/2000/svg" xmlns:xlink="http://www.w3.org/1999/xlink" xml:space="preserve" overflow="hidden"><defs><clipPath id="clip0"><rect x="1013" y="309" width="151" height="151"/></clipPath></defs><g clip-path="url(#clip0)" transform="translate(-1013 -309)"><path d="M1138.83 362.479 1138.83 329.448 1128.29 339.986C1117.76 330.549 1103.76 324.729 1088.5 324.729 1055.47 324.729 1028.73 351.469 1028.73 384.5 1028.73 417.531 1055.47 444.271 1088.5 444.271 1105.02 444.271 1119.96 437.507 1130.81 426.811L1117.44 413.442C1110.05 420.834 1099.82 425.396 1088.5 425.396 1066.01 425.396 1047.6 406.993 1047.6 384.5 1047.6 362.007 1066.01 343.604 1088.5 343.604 1098.57 343.604 1107.85 347.222 1114.93 353.356L1105.8 362.479 1138.83 362.479Z" fill="#002060"/></g></svg>