<svg width="151" height="151" xmlns="http://www.w3.org/2000/svg" xmlns:xlink="http://www.w3.org/1999/xlink" xml:space="preserve" overflow="hidden"><defs><clipPath id="clip0"><rect x="484" y="70" width="151" height="151"/></clipPath></defs><g clip-path="url(#clip0)" transform="translate(-484 -70)"><path d="M495.097 150.261 612.687 150.261 598.695 164.252C596.871 166.077 596.871 169.034 598.695 170.859 600.52 172.683 603.477 172.683 605.302 170.859L627.307 148.847C629.131 147.11 629.202 144.222 627.464 142.398 627.413 142.345 627.36 142.292 627.307 142.241L605.297 120.236C603.56 118.412 600.672 118.341 598.848 120.079 598.794 120.13 598.742 120.182 598.691 120.236 596.867 121.973 596.796 124.861 598.534 126.685 598.585 126.738 598.637 126.791 598.691 126.842L612.682 140.841 495.097 140.841C492.491 140.841 490.378 142.954 490.378 145.56 490.378 148.166 492.491 150.279 495.097 150.279Z" fill="#00B050"/></g></svg>